<mxfile host="app.diagrams.net" agent="Mozilla/5.0 (Windows NT 10.0; Win64; x64) AppleWebKit/537.36 (KHTML, like Gecko) Chrome/137.0.0.0 Safari/537.36" version="27.1.6">
  <diagram name="Pagina-1" id="VRjLG4jQv8QDYH_ADrdx">
    <mxGraphModel dx="4074" dy="3412" grid="1" gridSize="10" guides="1" tooltips="1" connect="1" arrows="1" fold="1" page="1" pageScale="1" pageWidth="827" pageHeight="1169" math="0" shadow="0">
      <root>
        <mxCell id="0" />
        <mxCell id="1" parent="0" />
        <mxCell id="CqXHPoV8kdmbGFH2dtoZ-67" value="Ja" style="curved=1;startArrow=none;endArrow=block;exitX=0;exitY=0.39;entryX=0;entryY=0.72;rounded=0;" parent="1" edge="1">
          <mxGeometry relative="1" as="geometry">
            <Array as="points">
              <mxPoint x="600" y="1839" />
              <mxPoint x="600" y="-461" />
            </Array>
            <mxPoint x="821" y="-501.1199999999999" as="targetPoint" />
          </mxGeometry>
        </mxCell>
        <mxCell id="CqXHPoV8kdmbGFH2dtoZ-133" value="" style="edgeStyle=orthogonalEdgeStyle;rounded=0;orthogonalLoop=1;jettySize=auto;html=1;" parent="1" source="CqXHPoV8kdmbGFH2dtoZ-68" target="CqXHPoV8kdmbGFH2dtoZ-69" edge="1">
          <mxGeometry relative="1" as="geometry" />
        </mxCell>
        <mxCell id="CqXHPoV8kdmbGFH2dtoZ-68" value="Start spel" style="whiteSpace=wrap;strokeWidth=2;fillColor=#008a00;fontColor=#ffffff;strokeColor=#005700;" parent="1" vertex="1">
          <mxGeometry x="1042" y="-1020" width="129" height="54" as="geometry" />
        </mxCell>
        <mxCell id="CqXHPoV8kdmbGFH2dtoZ-69" value="Vorm 2 teams en geef namen" style="whiteSpace=wrap;strokeWidth=2;fillColor=light-dark(#1BA1E2,#00B8C4);fontColor=#ffffff;strokeColor=light-dark(#006EAF,#004B52);" parent="1" vertex="1">
          <mxGeometry x="977" y="-896" width="260" height="78" as="geometry" />
        </mxCell>
        <mxCell id="CqXHPoV8kdmbGFH2dtoZ-70" value="Stel ronde-teller in op 1" style="whiteSpace=wrap;strokeWidth=2;fillColor=light-dark(#1BA1E2,#00B8C4);fontColor=#ffffff;strokeColor=light-dark(#006EAF,#004B52);" parent="1" vertex="1">
          <mxGeometry x="991" y="-768" width="232" height="54" as="geometry" />
        </mxCell>
        <mxCell id="CqXHPoV8kdmbGFH2dtoZ-71" value="Selecteer willekeurig woord" style="whiteSpace=wrap;strokeWidth=2;fillColor=light-dark(#1BA1E2,#00B8C4);fontColor=#ffffff;strokeColor=light-dark(#006EAF,#004B52);" parent="1" vertex="1">
          <mxGeometry x="977" y="-664" width="260" height="78" as="geometry" />
        </mxCell>
        <mxCell id="CqXHPoV8kdmbGFH2dtoZ-72" value="Toon eerste letter" style="whiteSpace=wrap;strokeWidth=2;fillColor=light-dark(#1BA1E2,#00B8C4);fontColor=#ffffff;strokeColor=light-dark(#006EAF,#004B52);" parent="1" vertex="1">
          <mxGeometry x="1012" y="-536" width="189" height="54" as="geometry" />
        </mxCell>
        <mxCell id="CqXHPoV8kdmbGFH2dtoZ-134" value="" style="edgeStyle=orthogonalEdgeStyle;rounded=0;orthogonalLoop=1;jettySize=auto;html=1;" parent="1" source="CqXHPoV8kdmbGFH2dtoZ-73" target="CqXHPoV8kdmbGFH2dtoZ-74" edge="1">
          <mxGeometry relative="1" as="geometry" />
        </mxCell>
        <mxCell id="CqXHPoV8kdmbGFH2dtoZ-73" value="Team A begint met raden" style="whiteSpace=wrap;strokeWidth=2;fillColor=light-dark(#1BA1E2,#00B8C4);fontColor=#ffffff;strokeColor=light-dark(#006EAF,#004B52);" parent="1" vertex="1">
          <mxGeometry x="987" y="-407" width="239" height="54" as="geometry" />
        </mxCell>
        <mxCell id="CqXHPoV8kdmbGFH2dtoZ-135" value="" style="edgeStyle=orthogonalEdgeStyle;rounded=0;orthogonalLoop=1;jettySize=auto;html=1;" parent="1" source="CqXHPoV8kdmbGFH2dtoZ-74" target="CqXHPoV8kdmbGFH2dtoZ-75" edge="1">
          <mxGeometry relative="1" as="geometry" />
        </mxCell>
        <mxCell id="CqXHPoV8kdmbGFH2dtoZ-74" value="Maximaal 5 pogingen" style="whiteSpace=wrap;strokeWidth=2;fillColor=light-dark(#1BA1E2,#00B8C4);fontColor=#ffffff;strokeColor=light-dark(#006EAF,#004B52);" parent="1" vertex="1">
          <mxGeometry x="1081" y="-303" width="210" height="54" as="geometry" />
        </mxCell>
        <mxCell id="YtyRzsvjCrmyd26-E2w6-6" style="edgeStyle=orthogonalEdgeStyle;rounded=0;orthogonalLoop=1;jettySize=auto;html=1;" edge="1" parent="1" source="CqXHPoV8kdmbGFH2dtoZ-75" target="YtyRzsvjCrmyd26-E2w6-1">
          <mxGeometry relative="1" as="geometry" />
        </mxCell>
        <mxCell id="CqXHPoV8kdmbGFH2dtoZ-75" value="Speler voert woord in" style="whiteSpace=wrap;strokeWidth=2;fillColor=light-dark(#1BA1E2,#00B8C4);fontColor=#ffffff;strokeColor=light-dark(#006EAF,#004B52);" parent="1" vertex="1">
          <mxGeometry x="1171.5" y="-200" width="215" height="54" as="geometry" />
        </mxCell>
        <mxCell id="CqXHPoV8kdmbGFH2dtoZ-137" style="edgeStyle=orthogonalEdgeStyle;rounded=0;orthogonalLoop=1;jettySize=auto;html=1;exitX=1;exitY=1;exitDx=0;exitDy=0;" parent="1" source="CqXHPoV8kdmbGFH2dtoZ-76" target="CqXHPoV8kdmbGFH2dtoZ-77" edge="1">
          <mxGeometry relative="1" as="geometry">
            <Array as="points">
              <mxPoint x="1320" y="77" />
              <mxPoint x="1320" y="38" />
              <mxPoint x="1433" y="38" />
            </Array>
          </mxGeometry>
        </mxCell>
        <mxCell id="CqXHPoV8kdmbGFH2dtoZ-138" value="&lt;font style=&quot;vertical-align: inherit;&quot;&gt;&lt;font style=&quot;vertical-align: inherit;&quot;&gt;Ja&lt;/font&gt;&lt;/font&gt;" style="edgeLabel;html=1;align=center;verticalAlign=middle;resizable=0;points=[];" parent="CqXHPoV8kdmbGFH2dtoZ-137" vertex="1" connectable="0">
          <mxGeometry x="0.3445" y="-2" relative="1" as="geometry">
            <mxPoint x="2" y="26" as="offset" />
          </mxGeometry>
        </mxCell>
        <mxCell id="CqXHPoV8kdmbGFH2dtoZ-139" style="edgeStyle=orthogonalEdgeStyle;rounded=0;orthogonalLoop=1;jettySize=auto;html=1;entryX=0.5;entryY=0;entryDx=0;entryDy=0;" parent="1" source="CqXHPoV8kdmbGFH2dtoZ-76" target="CqXHPoV8kdmbGFH2dtoZ-78" edge="1">
          <mxGeometry relative="1" as="geometry">
            <Array as="points">
              <mxPoint x="1130" y="38" />
              <mxPoint x="1130" y="104" />
            </Array>
          </mxGeometry>
        </mxCell>
        <mxCell id="CqXHPoV8kdmbGFH2dtoZ-140" value="&lt;font style=&quot;vertical-align: inherit;&quot;&gt;&lt;font style=&quot;vertical-align: inherit;&quot;&gt;Nee&lt;/font&gt;&lt;/font&gt;" style="edgeLabel;html=1;align=center;verticalAlign=middle;resizable=0;points=[];" parent="CqXHPoV8kdmbGFH2dtoZ-139" vertex="1" connectable="0">
          <mxGeometry x="0.5" y="1" relative="1" as="geometry">
            <mxPoint x="-1" y="-17" as="offset" />
          </mxGeometry>
        </mxCell>
        <mxCell id="CqXHPoV8kdmbGFH2dtoZ-76" value="Is het correct?" style="rhombus;strokeWidth=2;whiteSpace=wrap;fillColor=#1ba1e2;fontColor=#ffffff;strokeColor=#006EAF;" parent="1" vertex="1">
          <mxGeometry x="1201" y="-40" width="156" height="156" as="geometry" />
        </mxCell>
        <mxCell id="CqXHPoV8kdmbGFH2dtoZ-142" style="edgeStyle=orthogonalEdgeStyle;rounded=0;orthogonalLoop=1;jettySize=auto;html=1;" parent="1" source="CqXHPoV8kdmbGFH2dtoZ-77" target="CqXHPoV8kdmbGFH2dtoZ-87" edge="1">
          <mxGeometry relative="1" as="geometry" />
        </mxCell>
        <mxCell id="CqXHPoV8kdmbGFH2dtoZ-77" value="Team mag in ballenbak grabbelen" style="whiteSpace=wrap;strokeWidth=2;fillColor=light-dark(#1BA1E2,#00B8C4);fontColor=#ffffff;strokeColor=light-dark(#006EAF,#004B52);" parent="1" vertex="1">
          <mxGeometry x="1303" y="134" width="260" height="78" as="geometry" />
        </mxCell>
        <mxCell id="CqXHPoV8kdmbGFH2dtoZ-143" style="edgeStyle=orthogonalEdgeStyle;rounded=0;orthogonalLoop=1;jettySize=auto;html=1;entryX=0.5;entryY=0;entryDx=0;entryDy=0;" parent="1" source="CqXHPoV8kdmbGFH2dtoZ-78" target="CqXHPoV8kdmbGFH2dtoZ-79" edge="1">
          <mxGeometry relative="1" as="geometry" />
        </mxCell>
        <mxCell id="CqXHPoV8kdmbGFH2dtoZ-78" value="Toon feedback groen/geel" style="whiteSpace=wrap;strokeWidth=2;fillColor=light-dark(#1BA1E2,#00B8C4);fontColor=#ffffff;strokeColor=light-dark(#006EAF,#004B52);" parent="1" vertex="1">
          <mxGeometry x="1006" y="146" width="247" height="54" as="geometry" />
        </mxCell>
        <mxCell id="CqXHPoV8kdmbGFH2dtoZ-144" style="edgeStyle=orthogonalEdgeStyle;rounded=0;orthogonalLoop=1;jettySize=auto;html=1;entryX=0;entryY=0.5;entryDx=0;entryDy=0;exitX=0;exitY=0.5;exitDx=0;exitDy=0;" parent="1" source="CqXHPoV8kdmbGFH2dtoZ-79" target="CqXHPoV8kdmbGFH2dtoZ-74" edge="1">
          <mxGeometry relative="1" as="geometry">
            <mxPoint x="930" y="380" as="sourcePoint" />
            <Array as="points">
              <mxPoint x="890" y="385" />
              <mxPoint x="890" y="-276" />
            </Array>
          </mxGeometry>
        </mxCell>
        <mxCell id="CqXHPoV8kdmbGFH2dtoZ-145" value="&lt;font style=&quot;vertical-align: inherit;&quot;&gt;&lt;font style=&quot;vertical-align: inherit;&quot;&gt;Nee&lt;/font&gt;&lt;/font&gt;" style="edgeLabel;html=1;align=center;verticalAlign=middle;resizable=0;points=[];" parent="CqXHPoV8kdmbGFH2dtoZ-144" vertex="1" connectable="0">
          <mxGeometry x="-0.0131" relative="1" as="geometry">
            <mxPoint as="offset" />
          </mxGeometry>
        </mxCell>
        <mxCell id="CqXHPoV8kdmbGFH2dtoZ-79" value="Aantal pogingen op?" style="rhombus;strokeWidth=2;whiteSpace=wrap;fillColor=#1ba1e2;fontColor=#ffffff;strokeColor=#006EAF;" parent="1" vertex="1">
          <mxGeometry x="935" y="287" width="197" height="197" as="geometry" />
        </mxCell>
        <mxCell id="CqXHPoV8kdmbGFH2dtoZ-161" style="edgeStyle=orthogonalEdgeStyle;rounded=0;orthogonalLoop=1;jettySize=auto;html=1;entryX=0.5;entryY=0;entryDx=0;entryDy=0;" parent="1" source="CqXHPoV8kdmbGFH2dtoZ-80" target="CqXHPoV8kdmbGFH2dtoZ-81" edge="1">
          <mxGeometry relative="1" as="geometry" />
        </mxCell>
        <mxCell id="CqXHPoV8kdmbGFH2dtoZ-162" value="Ja" style="edgeLabel;html=1;align=center;verticalAlign=middle;resizable=0;points=[];" parent="CqXHPoV8kdmbGFH2dtoZ-161" vertex="1" connectable="0">
          <mxGeometry x="-0.7856" y="-2" relative="1" as="geometry">
            <mxPoint as="offset" />
          </mxGeometry>
        </mxCell>
        <mxCell id="CqXHPoV8kdmbGFH2dtoZ-163" style="edgeStyle=orthogonalEdgeStyle;rounded=0;orthogonalLoop=1;jettySize=auto;html=1;" parent="1" source="CqXHPoV8kdmbGFH2dtoZ-80" edge="1">
          <mxGeometry relative="1" as="geometry">
            <mxPoint x="910" y="1010" as="targetPoint" />
          </mxGeometry>
        </mxCell>
        <mxCell id="CqXHPoV8kdmbGFH2dtoZ-164" value="Nee" style="edgeLabel;html=1;align=center;verticalAlign=middle;resizable=0;points=[];" parent="CqXHPoV8kdmbGFH2dtoZ-163" vertex="1" connectable="0">
          <mxGeometry x="0.2046" y="1" relative="1" as="geometry">
            <mxPoint as="offset" />
          </mxGeometry>
        </mxCell>
        <mxCell id="CqXHPoV8kdmbGFH2dtoZ-80" value="3 fouten op rij?" style="rhombus;strokeWidth=2;whiteSpace=wrap;fillColor=#1ba1e2;fontColor=#ffffff;strokeColor=#006EAF;" parent="1" vertex="1">
          <mxGeometry x="952" y="777" width="164" height="164" as="geometry" />
        </mxCell>
        <mxCell id="CqXHPoV8kdmbGFH2dtoZ-81" value="Team verliest" style="whiteSpace=wrap;strokeWidth=2;fillColor=light-dark(#1BA1E2,#00B8C4);fontColor=#ffffff;strokeColor=light-dark(#006EAF,#004B52);" parent="1" vertex="1">
          <mxGeometry x="1229" y="1514" width="156" height="54" as="geometry" />
        </mxCell>
        <mxCell id="CqXHPoV8kdmbGFH2dtoZ-82" value="Wissel team" style="whiteSpace=wrap;strokeWidth=2;fillColor=light-dark(#1BA1E2,#00B8C4);fontColor=#ffffff;strokeColor=light-dark(#006EAF,#004B52);" parent="1" vertex="1">
          <mxGeometry x="835" y="1013" width="146" height="54" as="geometry" />
        </mxCell>
        <mxCell id="CqXHPoV8kdmbGFH2dtoZ-165" style="edgeStyle=orthogonalEdgeStyle;rounded=0;orthogonalLoop=1;jettySize=auto;html=1;" parent="1" source="CqXHPoV8kdmbGFH2dtoZ-83" target="CqXHPoV8kdmbGFH2dtoZ-84" edge="1">
          <mxGeometry relative="1" as="geometry">
            <Array as="points">
              <mxPoint x="1056" y="1249" />
            </Array>
          </mxGeometry>
        </mxCell>
        <mxCell id="CqXHPoV8kdmbGFH2dtoZ-166" value="Ja" style="edgeLabel;html=1;align=center;verticalAlign=middle;resizable=0;points=[];" parent="CqXHPoV8kdmbGFH2dtoZ-165" vertex="1" connectable="0">
          <mxGeometry x="0.1206" y="-2" relative="1" as="geometry">
            <mxPoint as="offset" />
          </mxGeometry>
        </mxCell>
        <mxCell id="CqXHPoV8kdmbGFH2dtoZ-167" style="edgeStyle=orthogonalEdgeStyle;rounded=0;orthogonalLoop=1;jettySize=auto;html=1;entryX=0.5;entryY=0;entryDx=0;entryDy=0;" parent="1" source="CqXHPoV8kdmbGFH2dtoZ-83" target="CqXHPoV8kdmbGFH2dtoZ-85" edge="1">
          <mxGeometry relative="1" as="geometry">
            <Array as="points">
              <mxPoint x="761" y="1249" />
              <mxPoint x="761" y="1436" />
            </Array>
          </mxGeometry>
        </mxCell>
        <mxCell id="CqXHPoV8kdmbGFH2dtoZ-168" value="Nee" style="edgeLabel;html=1;align=center;verticalAlign=middle;resizable=0;points=[];" parent="CqXHPoV8kdmbGFH2dtoZ-167" vertex="1" connectable="0">
          <mxGeometry x="0.1287" relative="1" as="geometry">
            <mxPoint as="offset" />
          </mxGeometry>
        </mxCell>
        <mxCell id="CqXHPoV8kdmbGFH2dtoZ-83" value="Huidig team is Team A?" style="rhombus;strokeWidth=2;whiteSpace=wrap;fillColor=#1ba1e2;fontColor=#ffffff;strokeColor=#006EAF;" parent="1" vertex="1">
          <mxGeometry x="799" y="1140" width="218" height="218" as="geometry" />
        </mxCell>
        <mxCell id="CqXHPoV8kdmbGFH2dtoZ-171" style="edgeStyle=orthogonalEdgeStyle;rounded=0;orthogonalLoop=1;jettySize=auto;html=1;entryX=0.75;entryY=0;entryDx=0;entryDy=0;" parent="1" source="CqXHPoV8kdmbGFH2dtoZ-84" target="CqXHPoV8kdmbGFH2dtoZ-86" edge="1">
          <mxGeometry relative="1" as="geometry" />
        </mxCell>
        <mxCell id="CqXHPoV8kdmbGFH2dtoZ-84" value="Team B is nu aan de beurt" style="whiteSpace=wrap;strokeWidth=2;fillColor=light-dark(#1BA1E2,#00B8C4);fontColor=#ffffff;strokeColor=light-dark(#006EAF,#004B52);" parent="1" vertex="1">
          <mxGeometry x="933" y="1514" width="246" height="54" as="geometry" />
        </mxCell>
        <mxCell id="CqXHPoV8kdmbGFH2dtoZ-172" style="edgeStyle=orthogonalEdgeStyle;rounded=0;orthogonalLoop=1;jettySize=auto;html=1;entryX=0.25;entryY=0;entryDx=0;entryDy=0;" parent="1" source="CqXHPoV8kdmbGFH2dtoZ-85" target="CqXHPoV8kdmbGFH2dtoZ-86" edge="1">
          <mxGeometry relative="1" as="geometry" />
        </mxCell>
        <mxCell id="CqXHPoV8kdmbGFH2dtoZ-85" value="Team A is nu aan de beurt" style="whiteSpace=wrap;strokeWidth=2;fillColor=light-dark(#1BA1E2,#00B8C4);fontColor=#ffffff;strokeColor=light-dark(#006EAF,#004B52);" parent="1" vertex="1">
          <mxGeometry x="638" y="1514" width="245" height="54" as="geometry" />
        </mxCell>
        <mxCell id="CqXHPoV8kdmbGFH2dtoZ-173" style="edgeStyle=orthogonalEdgeStyle;rounded=0;orthogonalLoop=1;jettySize=auto;html=1;exitX=0;exitY=0.5;exitDx=0;exitDy=0;entryX=0;entryY=0.5;entryDx=0;entryDy=0;" parent="1" source="CqXHPoV8kdmbGFH2dtoZ-86" target="CqXHPoV8kdmbGFH2dtoZ-73" edge="1">
          <mxGeometry relative="1" as="geometry">
            <Array as="points">
              <mxPoint x="600" y="1750" />
              <mxPoint x="600" y="-380" />
            </Array>
          </mxGeometry>
        </mxCell>
        <mxCell id="CqXHPoV8kdmbGFH2dtoZ-86" value="Verhoog ronde-teller" style="whiteSpace=wrap;strokeWidth=2;fillColor=light-dark(#1BA1E2,#00B8C4);fontColor=#ffffff;strokeColor=light-dark(#006EAF,#004B52);" parent="1" vertex="1">
          <mxGeometry x="765" y="1723" width="209" height="54" as="geometry" />
        </mxCell>
        <mxCell id="CqXHPoV8kdmbGFH2dtoZ-87" value="Trek 2 ballen" style="whiteSpace=wrap;strokeWidth=2;fillColor=light-dark(#1BA1E2,#00B8C4);fontColor=#ffffff;strokeColor=light-dark(#006EAF,#004B52);" parent="1" vertex="1">
          <mxGeometry x="1779" y="359" width="153" height="54" as="geometry" />
        </mxCell>
        <mxCell id="CqXHPoV8kdmbGFH2dtoZ-146" style="edgeStyle=orthogonalEdgeStyle;rounded=0;orthogonalLoop=1;jettySize=auto;html=1;entryX=0.5;entryY=0;entryDx=0;entryDy=0;" parent="1" source="CqXHPoV8kdmbGFH2dtoZ-88" target="CqXHPoV8kdmbGFH2dtoZ-89" edge="1">
          <mxGeometry relative="1" as="geometry">
            <Array as="points">
              <mxPoint x="1970" y="620" />
            </Array>
          </mxGeometry>
        </mxCell>
        <mxCell id="CqXHPoV8kdmbGFH2dtoZ-147" value="&lt;font style=&quot;vertical-align: inherit;&quot;&gt;&lt;font style=&quot;vertical-align: inherit;&quot;&gt;Ja&lt;/font&gt;&lt;/font&gt;" style="edgeLabel;html=1;align=center;verticalAlign=middle;resizable=0;points=[];" parent="CqXHPoV8kdmbGFH2dtoZ-146" vertex="1" connectable="0">
          <mxGeometry x="0.0351" y="-1" relative="1" as="geometry">
            <mxPoint x="1" y="35" as="offset" />
          </mxGeometry>
        </mxCell>
        <mxCell id="CqXHPoV8kdmbGFH2dtoZ-148" style="edgeStyle=orthogonalEdgeStyle;rounded=0;orthogonalLoop=1;jettySize=auto;html=1;exitX=0;exitY=0.5;exitDx=0;exitDy=0;entryX=0.5;entryY=0;entryDx=0;entryDy=0;" parent="1" source="CqXHPoV8kdmbGFH2dtoZ-88" target="CqXHPoV8kdmbGFH2dtoZ-90" edge="1">
          <mxGeometry relative="1" as="geometry" />
        </mxCell>
        <mxCell id="CqXHPoV8kdmbGFH2dtoZ-149" value="&lt;font style=&quot;vertical-align: inherit;&quot;&gt;&lt;font style=&quot;vertical-align: inherit;&quot;&gt;Nee&lt;/font&gt;&lt;/font&gt;" style="edgeLabel;html=1;align=center;verticalAlign=middle;resizable=0;points=[];" parent="CqXHPoV8kdmbGFH2dtoZ-148" vertex="1" connectable="0">
          <mxGeometry x="0.3237" relative="1" as="geometry">
            <mxPoint as="offset" />
          </mxGeometry>
        </mxCell>
        <mxCell id="CqXHPoV8kdmbGFH2dtoZ-88" value="Eerste bal rood?" style="rhombus;strokeWidth=2;whiteSpace=wrap;fillColor=#1ba1e2;fontColor=#ffffff;strokeColor=#006EAF;" parent="1" vertex="1">
          <mxGeometry x="1771" y="535" width="169" height="169" as="geometry" />
        </mxCell>
        <mxCell id="YtyRzsvjCrmyd26-E2w6-9" style="edgeStyle=orthogonalEdgeStyle;rounded=0;orthogonalLoop=1;jettySize=auto;html=1;entryX=1;entryY=0.5;entryDx=0;entryDy=0;" edge="1" parent="1" source="CqXHPoV8kdmbGFH2dtoZ-89" target="YtyRzsvjCrmyd26-E2w6-8">
          <mxGeometry relative="1" as="geometry" />
        </mxCell>
        <mxCell id="CqXHPoV8kdmbGFH2dtoZ-89" value="Geen tweede bal" style="whiteSpace=wrap;strokeWidth=2;fillColor=light-dark(#1BA1E2,#00B8C4);fontColor=#ffffff;strokeColor=light-dark(#006EAF,#004B52);" parent="1" vertex="1">
          <mxGeometry x="1879" y="832" width="182" height="54" as="geometry" />
        </mxCell>
        <mxCell id="YtyRzsvjCrmyd26-E2w6-10" style="edgeStyle=orthogonalEdgeStyle;rounded=0;orthogonalLoop=1;jettySize=auto;html=1;entryX=0;entryY=0.5;entryDx=0;entryDy=0;" edge="1" parent="1" source="CqXHPoV8kdmbGFH2dtoZ-90" target="YtyRzsvjCrmyd26-E2w6-8">
          <mxGeometry relative="1" as="geometry" />
        </mxCell>
        <mxCell id="CqXHPoV8kdmbGFH2dtoZ-90" value="Trek tweede bal" style="whiteSpace=wrap;strokeWidth=2;fillColor=light-dark(#1BA1E2,#00B8C4);fontColor=#ffffff;strokeColor=light-dark(#006EAF,#004B52);" parent="1" vertex="1">
          <mxGeometry x="1653" y="832" width="176" height="54" as="geometry" />
        </mxCell>
        <mxCell id="CqXHPoV8kdmbGFH2dtoZ-91" value="Verwerk ballen" style="whiteSpace=wrap;strokeWidth=2;fillColor=light-dark(#1BA1E2,#00B8C4);fontColor=#ffffff;strokeColor=light-dark(#006EAF,#004B52);" parent="1" vertex="1">
          <mxGeometry x="1771" y="1050" width="167" height="54" as="geometry" />
        </mxCell>
        <mxCell id="CqXHPoV8kdmbGFH2dtoZ-152" style="edgeStyle=orthogonalEdgeStyle;rounded=0;orthogonalLoop=1;jettySize=auto;html=1;entryX=0.5;entryY=0;entryDx=0;entryDy=0;" parent="1" source="CqXHPoV8kdmbGFH2dtoZ-92" target="CqXHPoV8kdmbGFH2dtoZ-93" edge="1">
          <mxGeometry relative="1" as="geometry">
            <Array as="points">
              <mxPoint x="1959" y="1250" />
              <mxPoint x="1959" y="1380" />
            </Array>
          </mxGeometry>
        </mxCell>
        <mxCell id="CqXHPoV8kdmbGFH2dtoZ-153" value="&lt;font style=&quot;vertical-align: inherit;&quot;&gt;&lt;font style=&quot;vertical-align: inherit;&quot;&gt;Nee&lt;/font&gt;&lt;/font&gt;" style="edgeLabel;html=1;align=center;verticalAlign=middle;resizable=0;points=[];" parent="CqXHPoV8kdmbGFH2dtoZ-152" vertex="1" connectable="0">
          <mxGeometry x="0.1518" relative="1" as="geometry">
            <mxPoint as="offset" />
          </mxGeometry>
        </mxCell>
        <mxCell id="CqXHPoV8kdmbGFH2dtoZ-159" style="edgeStyle=orthogonalEdgeStyle;rounded=0;orthogonalLoop=1;jettySize=auto;html=1;entryX=1;entryY=0.5;entryDx=0;entryDy=0;" parent="1" source="CqXHPoV8kdmbGFH2dtoZ-92" target="CqXHPoV8kdmbGFH2dtoZ-81" edge="1">
          <mxGeometry relative="1" as="geometry">
            <Array as="points">
              <mxPoint x="1700" y="1249" />
              <mxPoint x="1700" y="1460" />
              <mxPoint x="1580" y="1460" />
              <mxPoint x="1580" y="1541" />
            </Array>
          </mxGeometry>
        </mxCell>
        <mxCell id="CqXHPoV8kdmbGFH2dtoZ-160" value="Ja" style="edgeLabel;html=1;align=center;verticalAlign=middle;resizable=0;points=[];" parent="CqXHPoV8kdmbGFH2dtoZ-159" vertex="1" connectable="0">
          <mxGeometry x="-0.4765" y="1" relative="1" as="geometry">
            <mxPoint as="offset" />
          </mxGeometry>
        </mxCell>
        <mxCell id="CqXHPoV8kdmbGFH2dtoZ-92" value="3 rode ballen?" style="rhombus;strokeWidth=2;whiteSpace=wrap;fillColor=#1ba1e2;fontColor=#ffffff;strokeColor=#006EAF;" parent="1" vertex="1">
          <mxGeometry x="1778" y="1172" width="155" height="155" as="geometry" />
        </mxCell>
        <mxCell id="CqXHPoV8kdmbGFH2dtoZ-154" style="edgeStyle=orthogonalEdgeStyle;rounded=0;orthogonalLoop=1;jettySize=auto;html=1;" parent="1" source="CqXHPoV8kdmbGFH2dtoZ-93" target="CqXHPoV8kdmbGFH2dtoZ-94" edge="1">
          <mxGeometry relative="1" as="geometry" />
        </mxCell>
        <mxCell id="CqXHPoV8kdmbGFH2dtoZ-155" value="&lt;font style=&quot;vertical-align: inherit;&quot;&gt;&lt;font style=&quot;vertical-align: inherit;&quot;&gt;Ja&lt;/font&gt;&lt;/font&gt;" style="edgeLabel;html=1;align=center;verticalAlign=middle;resizable=0;points=[];" parent="CqXHPoV8kdmbGFH2dtoZ-154" vertex="1" connectable="0">
          <mxGeometry x="-0.5123" relative="1" as="geometry">
            <mxPoint as="offset" />
          </mxGeometry>
        </mxCell>
        <mxCell id="CqXHPoV8kdmbGFH2dtoZ-156" style="edgeStyle=orthogonalEdgeStyle;rounded=0;orthogonalLoop=1;jettySize=auto;html=1;entryX=1;entryY=0.5;entryDx=0;entryDy=0;strokeColor=default;exitX=0;exitY=0.5;exitDx=0;exitDy=0;" parent="1" source="CqXHPoV8kdmbGFH2dtoZ-93" target="CqXHPoV8kdmbGFH2dtoZ-86" edge="1">
          <mxGeometry relative="1" as="geometry">
            <Array as="points">
              <mxPoint x="1810" y="1541" />
              <mxPoint x="1810" y="1590" />
              <mxPoint x="1470" y="1590" />
              <mxPoint x="1470" y="1710" />
              <mxPoint x="1120" y="1710" />
              <mxPoint x="1120" y="1750" />
            </Array>
          </mxGeometry>
        </mxCell>
        <mxCell id="CqXHPoV8kdmbGFH2dtoZ-157" value="Nee" style="edgeLabel;html=1;align=center;verticalAlign=middle;resizable=0;points=[];" parent="CqXHPoV8kdmbGFH2dtoZ-156" vertex="1" connectable="0">
          <mxGeometry x="0.1334" y="1" relative="1" as="geometry">
            <mxPoint x="306" y="-121" as="offset" />
          </mxGeometry>
        </mxCell>
        <mxCell id="CqXHPoV8kdmbGFH2dtoZ-93" value="Heeft team gewonnen?" style="rhombus;strokeWidth=2;whiteSpace=wrap;fillColor=#1ba1e2;fontColor=#ffffff;strokeColor=#006EAF;" parent="1" vertex="1">
          <mxGeometry x="1849" y="1432" width="219" height="219" as="geometry" />
        </mxCell>
        <mxCell id="CqXHPoV8kdmbGFH2dtoZ-158" style="edgeStyle=orthogonalEdgeStyle;rounded=0;orthogonalLoop=1;jettySize=auto;html=1;entryX=1;entryY=0.5;entryDx=0;entryDy=0;" parent="1" source="CqXHPoV8kdmbGFH2dtoZ-94" target="CqXHPoV8kdmbGFH2dtoZ-95" edge="1">
          <mxGeometry relative="1" as="geometry">
            <Array as="points">
              <mxPoint x="1982" y="1955" />
            </Array>
          </mxGeometry>
        </mxCell>
        <mxCell id="CqXHPoV8kdmbGFH2dtoZ-94" value="Team wint" style="whiteSpace=wrap;strokeWidth=2;fillColor=light-dark(#1BA1E2,#00B8C4);fontColor=#ffffff;strokeColor=light-dark(#006EAF,#004B52);" parent="1" vertex="1">
          <mxGeometry x="1915" y="1723" width="134" height="54" as="geometry" />
        </mxCell>
        <mxCell id="CqXHPoV8kdmbGFH2dtoZ-169" style="edgeStyle=orthogonalEdgeStyle;rounded=0;orthogonalLoop=1;jettySize=auto;html=1;exitX=0;exitY=0.5;exitDx=0;exitDy=0;entryX=0;entryY=0.5;entryDx=0;entryDy=0;" parent="1" source="CqXHPoV8kdmbGFH2dtoZ-95" target="CqXHPoV8kdmbGFH2dtoZ-68" edge="1">
          <mxGeometry relative="1" as="geometry">
            <Array as="points">
              <mxPoint x="350" y="1955" />
              <mxPoint x="350" y="-993" />
            </Array>
          </mxGeometry>
        </mxCell>
        <mxCell id="CqXHPoV8kdmbGFH2dtoZ-170" value="Ja" style="edgeLabel;html=1;align=center;verticalAlign=middle;resizable=0;points=[];" parent="CqXHPoV8kdmbGFH2dtoZ-169" vertex="1" connectable="0">
          <mxGeometry x="-0.9614" relative="1" as="geometry">
            <mxPoint as="offset" />
          </mxGeometry>
        </mxCell>
        <mxCell id="CqXHPoV8kdmbGFH2dtoZ-95" value="Nog een keer spelen?" style="rhombus;strokeWidth=2;whiteSpace=wrap;fillColor=#1ba1e2;fontColor=#ffffff;strokeColor=#006EAF;" parent="1" vertex="1">
          <mxGeometry x="1205" y="1852" width="205" height="205" as="geometry" />
        </mxCell>
        <mxCell id="CqXHPoV8kdmbGFH2dtoZ-96" value="Einde spel" style="whiteSpace=wrap;strokeWidth=2;fillColor=light-dark(#1BA1E2,#FF9281);fontColor=#ffffff;strokeColor=light-dark(#006EAF,#A65F55);" parent="1" vertex="1">
          <mxGeometry x="1241" y="2131" width="133" height="54" as="geometry" />
        </mxCell>
        <mxCell id="CqXHPoV8kdmbGFH2dtoZ-98" value="" style="curved=1;startArrow=none;endArrow=block;exitX=0.5;exitY=1;entryX=0.5;entryY=0;rounded=0;" parent="1" source="CqXHPoV8kdmbGFH2dtoZ-69" target="CqXHPoV8kdmbGFH2dtoZ-70" edge="1">
          <mxGeometry relative="1" as="geometry">
            <Array as="points" />
          </mxGeometry>
        </mxCell>
        <mxCell id="CqXHPoV8kdmbGFH2dtoZ-99" value="" style="curved=1;startArrow=none;endArrow=block;exitX=0.5;exitY=1;entryX=0.5;entryY=0;rounded=0;" parent="1" source="CqXHPoV8kdmbGFH2dtoZ-70" target="CqXHPoV8kdmbGFH2dtoZ-71" edge="1">
          <mxGeometry relative="1" as="geometry">
            <Array as="points" />
          </mxGeometry>
        </mxCell>
        <mxCell id="CqXHPoV8kdmbGFH2dtoZ-100" value="" style="curved=1;startArrow=none;endArrow=block;exitX=0.5;exitY=1;entryX=0.5;entryY=0;rounded=0;" parent="1" source="CqXHPoV8kdmbGFH2dtoZ-71" target="CqXHPoV8kdmbGFH2dtoZ-72" edge="1">
          <mxGeometry relative="1" as="geometry">
            <Array as="points" />
          </mxGeometry>
        </mxCell>
        <mxCell id="CqXHPoV8kdmbGFH2dtoZ-101" value="" style="curved=1;startArrow=none;endArrow=block;exitX=0.5;exitY=1;entryX=0.5;entryY=0;rounded=0;" parent="1" source="CqXHPoV8kdmbGFH2dtoZ-72" target="CqXHPoV8kdmbGFH2dtoZ-73" edge="1">
          <mxGeometry relative="1" as="geometry">
            <Array as="points" />
          </mxGeometry>
        </mxCell>
        <mxCell id="CqXHPoV8kdmbGFH2dtoZ-109" value="Ja" style="curved=1;startArrow=none;endArrow=block;exitX=0.5;exitY=1;entryX=0.5;entryY=0;rounded=0;" parent="1" source="CqXHPoV8kdmbGFH2dtoZ-79" target="CqXHPoV8kdmbGFH2dtoZ-80" edge="1">
          <mxGeometry relative="1" as="geometry">
            <Array as="points" />
          </mxGeometry>
        </mxCell>
        <mxCell id="CqXHPoV8kdmbGFH2dtoZ-112" value="" style="curved=1;startArrow=none;endArrow=block;exitX=0.5;exitY=1.01;entryX=0.5;entryY=0;rounded=0;" parent="1" source="CqXHPoV8kdmbGFH2dtoZ-82" target="CqXHPoV8kdmbGFH2dtoZ-83" edge="1">
          <mxGeometry relative="1" as="geometry">
            <Array as="points" />
          </mxGeometry>
        </mxCell>
        <mxCell id="CqXHPoV8kdmbGFH2dtoZ-119" value="" style="curved=1;startArrow=none;endArrow=block;exitX=0.5;exitY=1;entryX=0.5;entryY=0;rounded=0;" parent="1" source="CqXHPoV8kdmbGFH2dtoZ-87" target="CqXHPoV8kdmbGFH2dtoZ-88" edge="1">
          <mxGeometry relative="1" as="geometry">
            <Array as="points" />
          </mxGeometry>
        </mxCell>
        <mxCell id="CqXHPoV8kdmbGFH2dtoZ-124" value="" style="curved=1;startArrow=none;endArrow=block;exitX=0.5;exitY=1.01;entryX=0.5;entryY=0;rounded=0;" parent="1" source="CqXHPoV8kdmbGFH2dtoZ-91" target="CqXHPoV8kdmbGFH2dtoZ-92" edge="1">
          <mxGeometry relative="1" as="geometry">
            <Array as="points" />
          </mxGeometry>
        </mxCell>
        <mxCell id="CqXHPoV8kdmbGFH2dtoZ-130" value="" style="curved=1;startArrow=none;endArrow=block;exitX=0.5;exitY=1;entryX=0.5;entryY=0;rounded=0;" parent="1" source="CqXHPoV8kdmbGFH2dtoZ-81" target="CqXHPoV8kdmbGFH2dtoZ-95" edge="1">
          <mxGeometry relative="1" as="geometry">
            <Array as="points" />
          </mxGeometry>
        </mxCell>
        <mxCell id="CqXHPoV8kdmbGFH2dtoZ-132" value="Nee" style="curved=1;startArrow=none;endArrow=block;exitX=0.5;exitY=1;entryX=0.5;entryY=0;rounded=0;" parent="1" source="CqXHPoV8kdmbGFH2dtoZ-95" target="CqXHPoV8kdmbGFH2dtoZ-96" edge="1">
          <mxGeometry relative="1" as="geometry">
            <Array as="points" />
          </mxGeometry>
        </mxCell>
        <mxCell id="YtyRzsvjCrmyd26-E2w6-7" style="edgeStyle=orthogonalEdgeStyle;rounded=0;orthogonalLoop=1;jettySize=auto;html=1;entryX=0.5;entryY=0;entryDx=0;entryDy=0;" edge="1" parent="1" source="YtyRzsvjCrmyd26-E2w6-1" target="CqXHPoV8kdmbGFH2dtoZ-76">
          <mxGeometry relative="1" as="geometry" />
        </mxCell>
        <mxCell id="YtyRzsvjCrmyd26-E2w6-1" value="Controleer elke letter van het ingevoerde woord" style="whiteSpace=wrap;strokeWidth=2;fillColor=light-dark(#1BA1E2,#00B8C4);fontColor=#ffffff;strokeColor=light-dark(#006EAF,#004B52);" vertex="1" parent="1">
          <mxGeometry x="1189" y="-110" width="180" height="50" as="geometry" />
        </mxCell>
        <mxCell id="YtyRzsvjCrmyd26-E2w6-16" style="edgeStyle=orthogonalEdgeStyle;rounded=0;orthogonalLoop=1;jettySize=auto;html=1;exitX=0;exitY=1;exitDx=0;exitDy=0;entryX=1;entryY=0.5;entryDx=0;entryDy=0;" edge="1" parent="1" source="YtyRzsvjCrmyd26-E2w6-8" target="YtyRzsvjCrmyd26-E2w6-15">
          <mxGeometry relative="1" as="geometry" />
        </mxCell>
        <mxCell id="YtyRzsvjCrmyd26-E2w6-17" value="Ja" style="edgeLabel;html=1;align=center;verticalAlign=middle;resizable=0;points=[];" vertex="1" connectable="0" parent="YtyRzsvjCrmyd26-E2w6-16">
          <mxGeometry x="0.2738" y="3" relative="1" as="geometry">
            <mxPoint y="-1" as="offset" />
          </mxGeometry>
        </mxCell>
        <mxCell id="YtyRzsvjCrmyd26-E2w6-8" value="Was de getrokken bal rood?" style="rhombus;strokeWidth=2;whiteSpace=wrap;fillColor=#1ba1e2;fontColor=#ffffff;strokeColor=#006EAF;" vertex="1" parent="1">
          <mxGeometry x="1779" y="899" width="142" height="114" as="geometry" />
        </mxCell>
        <mxCell id="YtyRzsvjCrmyd26-E2w6-13" style="edgeStyle=orthogonalEdgeStyle;rounded=0;orthogonalLoop=1;jettySize=auto;html=1;exitX=1;exitY=1;exitDx=0;exitDy=0;entryX=0.824;entryY=0.068;entryDx=0;entryDy=0;entryPerimeter=0;" edge="1" parent="1" source="YtyRzsvjCrmyd26-E2w6-8" target="CqXHPoV8kdmbGFH2dtoZ-91">
          <mxGeometry relative="1" as="geometry">
            <Array as="points">
              <mxPoint x="1960" y="985" />
              <mxPoint x="1960" y="1033" />
              <mxPoint x="1909" y="1033" />
            </Array>
          </mxGeometry>
        </mxCell>
        <mxCell id="YtyRzsvjCrmyd26-E2w6-14" value="Nee" style="edgeLabel;html=1;align=center;verticalAlign=middle;resizable=0;points=[];" vertex="1" connectable="0" parent="YtyRzsvjCrmyd26-E2w6-13">
          <mxGeometry x="-0.2954" y="1" relative="1" as="geometry">
            <mxPoint x="5" y="30" as="offset" />
          </mxGeometry>
        </mxCell>
        <mxCell id="YtyRzsvjCrmyd26-E2w6-18" style="edgeStyle=orthogonalEdgeStyle;rounded=0;orthogonalLoop=1;jettySize=auto;html=1;entryX=1;entryY=0.5;entryDx=0;entryDy=0;" edge="1" parent="1" source="YtyRzsvjCrmyd26-E2w6-15" target="CqXHPoV8kdmbGFH2dtoZ-82">
          <mxGeometry relative="1" as="geometry" />
        </mxCell>
        <mxCell id="YtyRzsvjCrmyd26-E2w6-15" value="Beurt eindigt, wissel team" style="whiteSpace=wrap;strokeWidth=2;fillColor=light-dark(#1BA1E2,#00B8C4);fontColor=#ffffff;strokeColor=light-dark(#006EAF,#004B52);" vertex="1" parent="1">
          <mxGeometry x="1563" y="1013" width="167" height="54" as="geometry" />
        </mxCell>
      </root>
    </mxGraphModel>
  </diagram>
</mxfile>
